HIERARCHY
ROOT Hips
{
  OFFSET 13.6774 106.653 -34.4427
  CHANNELS 6 Xposition Yposition Zposition Zrotation Xrotation Yrotation
  JOINT ToSpine
  {
    OFFSET -2.69724 7.43032 -0.144315
    CHANNELS 3 Zrotation Xrotation Yrotation
    JOINT Spine
    {
      OFFSET -0.0310711 10.7595 1.96963
      CHANNELS 3 Zrotation Xrotation Yrotation
      JOINT Spine1
      {
        OFFSET 19.9056 3.91189 0.764692
        CHANNELS 3 Zrotation Xrotation Yrotation
        JOINT Neck
        {
          OFFSET 25.9749 7.03908 -0.130764
          CHANNELS 3 Zrotation Xrotation Yrotation
          JOINT Head
          {
            OFFSET 9.52751 0.295786 -0.907742
            CHANNELS 3 Zrotation Xrotation Yrotation
            End Site
            {
              OFFSET 16.4037 0.713936 2.7358
            }
          }
        }
        JOINT LeftShoulder
        {
          OFFSET 17.7449 4.33886 11.7777
          CHANNELS 3 Zrotation Xrotation Yrotation
          JOINT LeftArm
          {
            OFFSET 0.911315 1.27913 9.80584
            CHANNELS 3 Zrotation Xrotation Yrotation
            JOINT LeftForeArm
            {
              OFFSET 28.6126 1.18197 -3.53199
              CHANNELS 3 Zrotation Xrotation Yrotation
              JOINT LeftHand
              {
                OFFSET 27.5088 0.0218783 0.327423
                CHANNELS 3 Zrotation Xrotation Yrotation
                End Site
                {
                  OFFSET 18.6038 -0.000155887 0.382096
                }
              }
            }
          }
        }
        JOINT RightShoulder
        {
          OFFSET 17.1009 2.89543 -12.2328
          CHANNELS 3 Zrotation Xrotation Yrotation
          JOINT RightArm
          {
            OFFSET 1.4228 0.178766 -10.211
            CHANNELS 3 Zrotation Xrotation Yrotation
            JOINT RightForeArm
            {
              OFFSET 28.733 1.87905 2.64907
              CHANNELS 3 Zrotation Xrotation Yrotation
              JOINT RightHand
              {
                OFFSET 27.4588 0.290562 -0.101845
                CHANNELS 3 Zrotation Xrotation Yrotation
                End Site
                {
                  OFFSET 17.8396 -0.255518 -0.000602873
                }
              }
            }
          }
        }
      }
    }
  }
  JOINT LeftUpLeg
  {
    OFFSET -5.61296 -2.22332 -10.2353
    CHANNELS 3 Zrotation Xrotation Yrotation
    JOINT LeftLeg
    {
      OFFSET 2.56703 -44.7417 -7.93097
      CHANNELS 3 Zrotation Xrotation Yrotation
      JOINT LeftFoot
      {
        OFFSET 3.16933 -46.5642 -3.96578
        CHANNELS 3 Zrotation Xrotation Yrotation
        JOINT LeftToeBase
        {
          OFFSET 0.346054 -6.02161 12.8035
          CHANNELS 3 Zrotation Xrotation Yrotation
          End Site
          {
            OFFSET 0.134235 -1.35082 5.13018
          }
        }
      }
    }
  }
  JOINT RightUpLeg
  {
    OFFSET -5.7928 -1.72406 10.6446
    CHANNELS 3 Zrotation Xrotation Yrotation
    JOINT RightLeg
    {
      OFFSET -2.57161 -44.7178 -7.85259
      CHANNELS 3 Zrotation Xrotation Yrotation
      JOINT RightFoot
      {
        OFFSET -3.10148 -46.5936 -4.03391
        CHANNELS 3 Zrotation Xrotation Yrotation
        JOINT RightToeBase
        {
          OFFSET -0.0828122 -6.13587 12.8035
          CHANNELS 3 Zrotation Xrotation Yrotation
          End Site
          {
            OFFSET -0.131328 -1.35082 5.13018
          }
        }
      }
    }
  }
}
MOTION
Frames: 10
Frame Time: 0.03333333333333333
0.0000 93.1000 0.0000 65.0437 -6.7634 16.0067 -71.0148 -0.1058 87.7400 156.8919 53.4028 -59.5173 7.1217 20.2174 1.5495 -169.3150 3.1023 -177.6591 -131.3540 31.3921 159.1077 1.4854 -3.8910 -35.6504 -116.1988 38.8763 -94.3292 0.2101 9.8702 7.3235 7.8026 -0.7372 -1.8686 0.3578 1.6715 15.2808 -76.7902 -37.3534 140.8923 16.1164 -22.8006 32.7112 5.4762 -0.4623 0.9095 8.9597 11.5625 91.7202 -165.2699 75.0462 169.2623 6.0083 3.8521 -0.9615 -13.1412 -48.6653 4.7268 -26.9573 -6.4320 89.1362 14.5482 74.4182 7.2900 -12.0015 -20.5416 0.5330 11.3791 -26.4479 -14.5507 
0.0000 93.1000 0.0000 65.0598 -7.2115 17.6695 -71.0128 -0.1050 87.7486 158.7852 54.3919 -60.3128 5.1458 21.1922 1.9937 -172.8894 2.8486 -178.8294 -132.1108 31.8223 159.3996 1.5102 -3.7308 -35.0397 -116.1801 38.8193 -88.2779 -0.5237 12.6261 7.6552 7.2710 -0.6926 -1.6716 0.3662 2.0503 15.4648 -75.5926 -38.1361 141.0871 19.2288 -20.2318 41.7423 5.7009 -0.3751 1.9457 10.9439 12.1190 89.5605 -166.3575 74.5414 173.6144 6.7899 4.0507 -1.0671 -13.0190 -49.1676 4.5501 -29.0303 -6.1481 87.8305 11.8034 71.8133 11.2931 -12.1889 -19.8283 0.5414 11.3556 -26.9063 -15.1576 
0.0000 93.1000 0.0000 62.8494 -5.2782 19.3706 -71.0267 -0.0428 87.7589 158.8509 56.4797 -59.8779 2.6635 21.6459 4.2293 -174.9091 3.0137 -179.5862 -132.8187 32.7871 157.7615 1.1839 -3.6974 -33.5201 -118.7761 38.7245 -82.2790 0.0831 14.4376 7.2256 5.5988 -0.4871 -2.6907 0.3488 2.3169 14.8179 -73.4033 -38.5924 139.3282 19.6924 -16.8460 47.7922 6.1125 0.0912 2.9297 11.8872 11.9284 87.8557 -167.7132 75.3641 177.9505 6.9152 4.3092 -1.3837 -13.3279 -49.8618 3.7699 -33.9305 -6.3917 84.8569 8.7458 66.3004 13.9320 -12.2722 -19.8598 1.0313 11.5371 -27.8506 -14.5615 
0.0000 93.1000 0.0000 59.9099 -0.6651 23.2513 -70.9973 -0.0354 87.7760 156.8892 59.7481 -56.3630 1.0321 21.4295 6.8403 -174.6537 4.5115 179.9944 -131.9837 34.2888 157.7462 1.5501 -2.6859 -30.8676 -118.8285 38.6654 -81.4516 0.9225 13.3584 7.1005 6.4007 -0.5457 -2.6970 0.1558 1.1273 16.6704 -71.2152 -39.2745 132.9489 19.3232 -14.9956 50.8559 6.4470 0.0263 3.8501 10.9634 10.9854 88.1156 -166.9359 76.6853 178.6583 6.5261 4.7991 -1.3587 -13.1327 -49.9485 4.9963 -41.2039 -7.7157 79.4782 6.1507 57.9733 15.6400 -11.1646 -20.5832 1.2555 11.8096 -25.3433 -15.2817 
0.0000 93.1000 0.0000 56.6339 5.0818 24.2574 -71.0207 0.0022 87.8038 151.7634 63.0869 -52.3445 -1.6369 21.2428 7.9900 -171.4537 7.3588 177.7384 -132.1269 37.5400 158.1271 1.4142 -2.6421 -29.1365 -117.0613 37.7110 -83.3069 -0.8349 11.8943 7.1413 8.0827 -0.4010 -2.2317 -0.2426 -0.2905 19.8136 -68.5294 -40.9193 122.8961 18.2833 -13.8743 50.6394 7.2171 0.1774 3.4752 7.0566 9.4467 91.9408 -163.6626 79.6542 174.7167 6.5505 4.6705 -1.5220 -11.7075 -47.0303 7.1191 -48.7670 -7.0447 80.4955 3.0140 47.4183 10.0563 -9.0405 -20.7082 1.6718 10.3586 -21.3404 -16.7229 
0.0000 93.1000 0.0000 53.8414 12.3809 23.0569 -71.0415 -0.0042 87.8166 143.6339 64.7252 -47.8646 -2.3343 21.9057 6.8795 -171.0490 9.8173 178.2205 -134.6891 40.7875 159.2485 1.5087 -2.3773 -27.0742 -112.6659 36.3416 -88.1378 -1.6930 6.6378 6.7477 9.2998 -0.4699 -1.6830 -0.4428 -1.5888 21.8559 -65.8032 -43.7808 114.7647 17.1891 -14.8546 47.0841 7.9375 -0.0033 1.8630 -2.5993 5.9104 97.9585 -133.7098 84.5359 138.9482 5.5929 1.0403 -1.4526 -11.0970 -43.2626 7.7123 -54.9286 -9.3957 80.8534 1.9816 44.3492 2.7151 -6.7799 -14.9194 1.2272 9.9755 -16.0218 -22.0125 
0.0000 93.1000 0.0000 51.8910 16.6473 23.2464 -71.0480 -0.0384 87.8528 140.5904 64.2209 -47.2513 -1.8563 21.6004 4.1502 -171.9747 11.5687 179.4918 -138.5863 43.5981 160.5815 1.8930 -1.3125 -26.6289 -109.7236 33.3439 -95.7136 -1.6380 3.7518 -2.0742 10.2545 -0.7306 -2.3192 -0.2661 -3.2063 24.7390 -64.1764 -45.6132 109.1305 14.8220 -15.2405 42.3143 8.9321 -0.0924 0.8672 -12.5484 4.0279 102.4522 -33.4669 83.7713 33.7559 6.1227 3.6908 -1.0939 -11.8039 -48.0830 6.3283 -55.6258 -8.3500 85.4405 2.5085 52.7033 -6.0510 -5.2779 -5.9242 0.3375 6.7224 -2.5482 -19.5600 
0.0000 93.1000 0.0000 52.7380 21.2849 21.3200 -71.0907 0.0609 87.9009 138.6732 62.8440 -51.5135 -0.3497 20.7428 2.0237 -174.7084 12.1899 177.7144 -141.7088 44.9179 158.9967 1.4612 -1.6776 -27.0536 -105.5729 28.0071 -103.1668 -1.6395 -0.5432 -12.5880 11.4025 -0.4147 -4.4604 -0.0749 -2.8116 26.4315 -66.7008 -48.3451 100.0744 12.7632 -13.9596 38.9696 9.7469 0.3192 -0.6632 -21.3995 1.9793 106.5688 -17.1814 78.9232 14.0829 5.4467 4.0172 -1.3122 -12.9404 -47.7823 5.0514 -48.2626 -5.8362 91.2637 7.9731 73.6047 -9.5205 -6.1859 -3.2029 0.5798 8.3253 -9.1694 -19.0556 
0.0000 93.1000 0.0000 51.0785 30.8397 22.6166 -71.1024 -0.0089 87.9013 135.7395 60.1208 -55.3366 1.0902 17.5703 4.5356 -173.9889 13.8738 178.9400 -139.8564 46.5786 160.9619 1.2196 -2.7893 -25.7201 -99.6002 20.8315 -113.2995 -1.1216 -6.1807 -22.2047 11.0852 -0.4494 -5.6460 -0.2384 -3.6946 26.9498 -67.7792 -53.0569 92.5390 10.3989 -9.6851 36.8141 9.7636 0.3847 -0.8461 -27.8410 -5.4748 104.3890 -14.4569 75.7418 5.5192 5.0722 1.5575 -1.2829 -11.2004 -42.7844 5.0136 -41.0638 -4.7559 90.0974 145.7170 82.2650 -143.6698 -7.7213 -2.7889 0.7236 9.0246 -15.4098 -16.8112 
0.0000 93.1000 0.0000 47.1673 38.8250 24.0530 -71.1198 -0.0864 87.9875 129.7807 58.3547 -54.8722 1.9331 15.4103 6.1742 -171.9444 15.1912 175.3851 -138.3102 48.3841 160.5324 1.3522 -3.6720 -22.3567 -106.8351 18.1784 -120.4487 0.8833 -1.2123 -31.4135 10.3189 -0.9391 -6.6332 -0.1411 -3.8705 26.6920 -72.9737 -56.1586 80.8080 7.1448 -7.2768 36.1702 8.2276 0.0821 -0.4356 -31.9932 -12.0696 101.1022 -13.3241 73.7602 0.5634 5.4122 0.9172 -1.0541 -10.9871 -42.3354 4.3389 -26.1980 -5.1709 89.2908 167.1670 65.5356 -164.8015 -8.1963 -2.2261 0.7620 10.0514 -19.8810 -17.5374 
